<svg width="407" height="126" viewBox="0 0 407 126" fill="none" xmlns="http://www.w3.org/2000/svg">
<path d="M22.119 98V43.157H0.404V27.3H63.731V43.157H42.117V98H22.119ZM101.04 98V87.799L99.7272 85.274V66.488C99.7272 63.458 98.7846 61.135 96.8992 59.519C95.0812 57.8357 92.1522 56.994 88.1122 56.994C85.4862 56.994 82.8266 57.4317 80.1332 58.307C77.4399 59.115 75.1506 60.2597 73.2652 61.741L66.8012 48.712C69.8986 46.692 73.6019 45.1433 77.9112 44.066C82.2879 42.9213 86.6309 42.349 90.9402 42.349C99.8282 42.349 106.696 44.4027 111.544 48.51C116.46 52.55 118.917 58.913 118.917 67.599V98H101.04ZM84.8802 98.909C80.5036 98.909 76.8002 98.1683 73.7702 96.687C70.7402 95.2057 68.4172 93.1857 66.8012 90.627C65.2526 88.0683 64.4782 85.2067 64.4782 82.042C64.4782 78.6753 65.3199 75.78 67.0032 73.356C68.7539 70.8647 71.4136 68.9793 74.9822 67.7C78.5509 66.3533 83.1632 65.68 88.8192 65.68H101.747V75.679H91.4452C88.3479 75.679 86.1596 76.184 84.8802 77.194C83.6682 78.204 83.0622 79.5507 83.0622 81.234C83.0622 82.9173 83.7019 84.264 84.9812 85.274C86.2606 86.284 88.0112 86.789 90.2332 86.789C92.3206 86.789 94.2059 86.284 95.8892 85.274C97.6399 84.1967 98.9192 82.5807 99.7272 80.426L102.353 87.496C101.343 91.2667 99.3569 94.1283 96.3942 96.081C93.4989 97.9663 89.6609 98.909 84.8802 98.909ZM150.927 98.909C146.281 98.909 141.736 98.3703 137.292 97.293C132.915 96.2157 129.38 94.869 126.687 93.253L132.444 80.123C135.003 81.6717 137.999 82.9173 141.433 83.86C144.867 84.7353 148.234 85.173 151.533 85.173C154.765 85.173 156.987 84.8363 158.199 84.163C159.478 83.4897 160.118 82.5807 160.118 81.436C160.118 80.3587 159.512 79.5843 158.3 79.113C157.155 78.5743 155.607 78.1703 153.654 77.901C151.769 77.6317 149.681 77.3287 147.392 76.992C145.103 76.6553 142.78 76.2177 140.423 75.679C138.134 75.073 136.013 74.1977 134.06 73.053C132.175 71.841 130.66 70.225 129.515 68.205C128.37 66.185 127.798 63.6263 127.798 60.529C127.798 57.0277 128.808 53.9303 130.828 51.237C132.915 48.4763 135.945 46.3217 139.918 44.773C143.891 43.157 148.739 42.349 154.462 42.349C158.3 42.349 162.172 42.753 166.077 43.561C170.05 44.3017 173.383 45.4463 176.076 46.995L170.319 60.024C167.626 58.4753 164.932 57.4317 162.239 56.893C159.546 56.287 156.987 55.984 154.563 55.984C151.331 55.984 149.042 56.3543 147.695 57.095C146.416 57.8357 145.776 58.7447 145.776 59.822C145.776 60.8993 146.348 61.741 147.493 62.347C148.638 62.8857 150.153 63.3233 152.038 63.66C153.991 63.9293 156.112 64.2323 158.401 64.569C160.69 64.8383 162.98 65.276 165.269 65.882C167.626 66.488 169.747 67.397 171.632 68.609C173.585 69.7537 175.133 71.336 176.278 73.356C177.423 75.3087 177.995 77.8337 177.995 80.931C177.995 84.2977 176.951 87.3277 174.864 90.021C172.844 92.7143 169.814 94.869 165.774 96.485C161.801 98.101 156.852 98.909 150.927 98.909ZM202.223 87.9L202.728 64.973L225.049 43.258H247.774L223.029 68.811L213.232 76.689L202.223 87.9ZM186.265 98V23.058H205.455V98H186.265ZM226.463 98L209.697 76.992L221.615 62.246L249.693 98H226.463Z" fill="#22C562"/>
<path d="M255.505 98V43.258H274.695V98H255.505ZM265.1 37.198C261.598 37.198 258.77 36.2217 256.616 34.269C254.461 32.3163 253.384 29.8923 253.384 26.997C253.384 24.1017 254.461 21.6777 256.616 19.725C258.77 17.7723 261.598 16.796 265.1 16.796C268.601 16.796 271.429 17.7387 273.584 19.624C275.738 21.442 276.816 23.7987 276.816 26.694C276.816 29.724 275.738 32.249 273.584 34.269C271.496 36.2217 268.668 37.198 265.1 37.198ZM289.388 98V43.864C289.388 37.2653 291.341 32.0133 295.246 28.108C299.219 24.1353 304.875 22.149 312.214 22.149C314.571 22.149 316.894 22.3847 319.183 22.856C321.472 23.3273 323.391 24.0343 324.94 24.977L320.193 38.511C319.385 38.0397 318.476 37.6693 317.466 37.4C316.456 37.0633 315.446 36.895 314.436 36.895C312.416 36.895 310.834 37.501 309.689 38.713C308.612 39.8577 308.073 41.642 308.073 44.066V48.005L308.578 55.984V98H289.388ZM281.409 59.62V45.278H321.102V59.62H281.409ZM338.576 118.503C335.681 118.503 332.752 118.032 329.789 117.089C326.894 116.214 324.537 115.035 322.719 113.554L329.385 100.121C330.53 101.131 331.843 101.905 333.324 102.444C334.873 103.05 336.388 103.353 337.869 103.353C339.957 103.353 341.606 102.882 342.818 101.939C344.03 100.996 345.074 99.515 345.949 97.495L348.474 91.132L349.989 89.213L368.573 43.258H386.854L363.22 100.222C361.335 104.935 359.147 108.605 356.655 111.231C354.231 113.924 351.504 115.81 348.474 116.887C345.512 117.964 342.212 118.503 338.576 118.503ZM346.05 100.323L321.911 43.258H341.606L359.382 87.496L346.05 100.323Z" fill="#EF4444"/>
<ellipse cx="266" cy="27" rx="13" ry="11" fill="#EAB308"/>
</svg>
